<?xml version="1.0" encoding="utf-8"?>
<!-- Generator: Adobe Illustrator 24.2.0, SVG Export Plug-In . SVG Version: 6.00 Build 0)  -->
<svg version="1.1" id="Ebene_1" xmlns="http://www.w3.org/2000/svg" xmlns:xlink="http://www.w3.org/1999/xlink" x="0px" y="0px"
	 viewBox="0 0 1000 1000" style="enable-background:new 0 0 1000 1000;" xml:space="preserve">
<g id="D_x5F_Icon_1_">
	<polygon points="464.3,426.5 428.6,462.2 428.6,426.5 	"/>
	<path d="M529.7,432.5L428.6,533.7V498l71.4-71.4C511,426.8,521,428.9,529.7,432.5z"/>
	<path d="M551.1,446.9c6,6.1,10.7,13.4,14.1,21.6L459.3,574.4h-30.7l0-5L551.1,446.9z"/>
	<path d="M571,498.4c0,0.7,0,1.4,0,2.1c0,22.1-7.2,40.8-20.3,54c-12.6,12.6-30.7,20-52.9,20l-2.8,0L571,498.4z"/>
</g>
</svg>
